<?xml version="1.0" encoding="utf-8"?>
<!-- Generator: Adobe Illustrator 16.0.0, SVG Export Plug-In . SVG Version: 6.00 Build 0)  -->
<!DOCTYPE svg PUBLIC "-//W3C//DTD SVG 1.1//EN" "http://www.w3.org/Graphics/SVG/1.1/DTD/svg11.dtd">
<svg version="1.1" id="Calque_1" xmlns="http://www.w3.org/2000/svg" xmlns:xlink="http://www.w3.org/1999/xlink" x="0px" y="0px"
	 width="40px" height="40px" viewBox="0 0 40 40" enable-background="new 0 0 40 40" xml:space="preserve">
<g id="CIRCLE_1_">
	<g id="XMLID_6_">
		<g>
			<path d="M40,20.01c0,2.86-0.6,5.58-1.689,8.04l-9.029-4.521c1.949-5.119-0.631-10.85-5.75-12.799
				c-5.131-1.951-10.86,0.619-12.811,5.74c-1.949,5.129,0.629,10.858,5.75,12.809c4.409,1.681,9.399,0.021,11.92-3.969l9.029,4.52
				C33.99,35.9,27.48,40,20,40C8.96,40,0,31.05,0,20.01C0,8.96,8.96,0,20,0C31.05,0,40,8.96,40,20.01z"/>
			<path fill="#FFFFFF" d="M38.311,28.05c-0.131,0.29-0.271,0.591-0.41,0.882c-0.149,0.299-0.311,0.6-0.479,0.898l-9.03-4.52
				c-2.52,3.988-7.51,5.648-11.92,3.969c-5.119-1.949-7.699-7.68-5.75-12.809c1.95-5.121,7.682-7.691,12.812-5.74
				c5.12,1.949,7.7,7.68,5.75,12.799L38.311,28.05z M27.941,20.01c0-4.39-3.562-7.949-7.94-7.949c-4.39,0-7.938,3.561-7.938,7.949
				c0,4.381,3.549,7.932,7.938,7.932C24.38,27.939,27.941,24.391,27.941,20.01z"/>
			<path d="M20,12.061c4.38,0,7.939,3.561,7.939,7.949c0,4.381-3.561,7.932-7.939,7.932c-4.391,0-7.939-3.551-7.939-7.932
				C12.061,15.62,15.611,12.061,20,12.061z M25.95,20.01c0-0.55-0.44-1-0.99-1s-0.989,0.45-0.989,1c0,2.19-1.779,3.961-3.971,3.961
				c-2.189,0-3.971-1.771-3.971-3.961c0-0.55-0.449-1-0.989-1c-0.55,0-1,0.45-1,1c0,3.28,2.67,5.95,5.96,5.95
				S25.95,23.29,25.95,20.01z M24.5,16.49c0-0.54-0.439-0.99-0.99-0.99c-0.55,0-0.988,0.45-0.988,0.99c0,0.55,0.438,1,0.988,1
				C24.061,17.49,24.5,17.04,24.5,16.49z M17.48,16.49c0-0.54-0.439-0.99-0.989-0.99S15.5,15.95,15.5,16.49c0,0.55,0.439,1,0.99,1
				C17.04,17.49,17.48,17.04,17.48,16.49z"/>
			<path fill="#FFFFFF" d="M24.96,19.01c0.55,0,0.99,0.45,0.99,1c0,3.28-2.66,5.95-5.95,5.95s-5.96-2.67-5.96-5.95
				c0-0.55,0.45-1,1-1c0.54,0,0.989,0.45,0.989,1c0,2.19,1.781,3.961,3.971,3.961s3.971-1.771,3.971-3.961
				C23.971,19.46,24.41,19.01,24.96,19.01z"/>
			<path fill="#FFFFFF" d="M23.51,15.5c0.551,0,0.99,0.45,0.99,0.99c0,0.55-0.439,1-0.99,1c-0.55,0-0.988-0.45-0.988-1
				C22.521,15.95,22.96,15.5,23.51,15.5z"/>
			<path fill="#FFFFFF" d="M16.49,15.5c0.55,0,0.99,0.45,0.99,0.99c0,0.55-0.44,1-0.99,1c-0.551,0-0.99-0.45-0.99-1
				C15.5,15.95,15.941,15.5,16.49,15.5z"/>
		</g>
	</g>
</g>
</svg>
