<?xml version="1.0" encoding="utf-8"?>
<!-- Generator: Adobe Illustrator 16.0.0, SVG Export Plug-In . SVG Version: 6.00 Build 0)  -->
<!DOCTYPE svg PUBLIC "-//W3C//DTD SVG 1.1//EN" "http://www.w3.org/Graphics/SVG/1.1/DTD/svg11.dtd">
<svg version="1.1" id="Calque_1" xmlns="http://www.w3.org/2000/svg" xmlns:xlink="http://www.w3.org/1999/xlink" x="0px" y="0px"
	 width="40px" height="40px" viewBox="0 0 40 40" enable-background="new 0 0 40 40" xml:space="preserve">
<g id="CIRCLE_29_">
	<g id="XMLID_3_">
		<g>
			<path fill="#FFFFFF" d="M40,20.01c0,2.86-0.6,5.58-1.689,8.04l-9.029-4.521c1.949-5.119-0.631-10.849-5.75-12.799
				c-5.131-1.95-10.86,0.62-12.811,5.74c-1.949,5.129,0.629,10.86,5.75,12.809c4.409,1.681,9.399,0.021,11.92-3.969l9.029,4.52
				C33.99,35.9,27.48,40,20,40C8.96,40,0,31.05,0,20.01C0,8.96,8.96,0,20,0C31.05,0,40,8.96,40,20.01z"/>
			<path d="M23.51,15.5c0.551,0,0.99,0.45,0.99,0.99c0,0.55-0.439,1-0.99,1c-0.55,0-0.988-0.45-0.988-1
				C22.521,15.95,22.96,15.5,23.51,15.5z"/>
			<path d="M16.49,15.5c0.55,0,0.99,0.45,0.99,0.99c0,0.55-0.44,1-0.99,1c-0.551,0-0.99-0.45-0.99-1
				C15.5,15.95,15.941,15.5,16.49,15.5z"/>
			<path d="M20,23.971c2.189,0,3.971-1.771,3.971-3.96c0-0.55,0.439-1,0.989-1s0.99,0.45,0.99,1c0,3.28-2.66,5.95-5.95,5.95
				s-5.96-2.67-5.96-5.95c0-0.55,0.45-1,1-1c0.54,0,0.989,0.45,0.989,1C16.031,22.2,17.811,23.971,20,23.971z"/>
			<path fill="#FFFFFF" d="M15.5,16.49c0,0.55,0.439,1,0.99,1c0.55,0,0.99-0.45,0.99-1c0-0.54-0.44-0.99-0.99-0.99
				C15.939,15.5,15.5,15.95,15.5,16.49z M24.5,16.49c0-0.54-0.439-0.99-0.99-0.99c-0.55,0-0.988,0.45-0.988,0.99
				c0,0.55,0.438,1,0.988,1C24.061,17.49,24.5,17.04,24.5,16.49z M15.04,19.01c-0.55,0-1,0.45-1,1c0,3.28,2.67,5.95,5.96,5.95
				s5.95-2.67,5.95-5.95c0-0.55-0.44-1-0.99-1s-0.989,0.45-0.989,1c0,2.19-1.779,3.961-3.971,3.961
				c-2.189,0-3.971-1.771-3.971-3.961C16.031,19.46,15.58,19.01,15.04,19.01z M12.061,20.01c0-4.39,3.551-7.95,7.939-7.95
				c4.38,0,7.939,3.56,7.939,7.95c0,4.381-3.561,7.93-7.939,7.93C15.611,27.939,12.061,24.391,12.061,20.01z"/>
			<path d="M28.391,25.311c-2.521,3.989-7.511,5.649-11.92,3.971c-5.121-1.95-7.699-7.68-5.75-12.81
				c1.949-5.12,7.68-7.69,12.811-5.74c5.119,1.95,7.699,7.68,5.75,12.8l9.029,4.52c-0.131,0.29-0.271,0.592-0.41,0.881
				c-0.149,0.301-0.311,0.601-0.479,0.899L28.391,25.311z M20,12.06c-4.391,0-7.939,3.56-7.939,7.95c0,4.381,3.551,7.93,7.939,7.93
				c4.38,0,7.939-3.549,7.939-7.93C27.941,15.62,24.38,12.06,20,12.06z"/>
		</g>
	</g>
</g>
</svg>
