<?xml version="1.0" encoding="utf-8"?>
<!-- Generator: Adobe Illustrator 16.0.0, SVG Export Plug-In . SVG Version: 6.00 Build 0)  -->
<!DOCTYPE svg PUBLIC "-//W3C//DTD SVG 1.1//EN" "http://www.w3.org/Graphics/SVG/1.1/DTD/svg11.dtd">
<svg version="1.1" id="Calque_1" xmlns="http://www.w3.org/2000/svg" xmlns:xlink="http://www.w3.org/1999/xlink" x="0px" y="0px"
	 width="133.971px" height="40px" viewBox="0 0 133.971 40" enable-background="new 0 0 133.971 40" xml:space="preserve">
<g id="LWPOLYLINE_6_">
	<g id="XMLID_1_">
		<g>
			<path d="M132.802,36.173c1.042,0.479,1.442,1.683,0.962,2.726c-0.562,0.961-1.764,1.361-2.725,0.881l-18.113-9.137
				c-5.13,8.096-15.147,11.381-24.044,8.016c-10.259-3.93-15.468-15.471-11.541-25.729C81.268,2.591,92.809-2.618,103.067,1.309
				c10.339,3.928,15.55,15.469,11.621,25.808L132.802,36.173z M111.964,19.982c0-8.815-7.133-15.948-15.949-15.948
				c-8.814,0-15.949,7.133-15.949,15.948S87.2,36.012,96.015,36.012C104.831,36.014,111.964,28.799,111.964,19.982z"/>
			<path d="M105.953,17.979c1.122,0,2.004,0.963,2.004,2.004c0,6.651-5.29,12.021-11.942,12.021s-12.021-5.37-12.021-12.021
				c0-1.041,0.962-2.004,2.003-2.004c1.122,0,2.004,0.963,2.004,2.004c0,4.408,3.605,8.016,8.015,8.016s8.015-3.605,8.015-8.016
				C104.029,18.941,104.911,17.979,105.953,17.979z"/>
			<path d="M103.067,10.927c1.122,0,2.004,0.882,2.004,2.003c0,1.122-0.882,2.004-2.004,2.004s-2.003-0.882-2.003-2.004
				C101.064,11.809,101.945,10.927,103.067,10.927z"/>
			<path d="M88.962,10.927c1.122,0,2.004,0.882,2.004,2.003c0,1.122-0.882,2.004-2.004,2.004s-2.004-0.882-2.004-2.004
				C86.958,11.809,87.84,10.927,88.962,10.927z"/>
			<path d="M77.261,0.027c1.122,0,2.004,0.881,2.004,2.002c0,1.123-0.882,2.005-2.004,2.005h-5.21v33.901
				c0,1.121-0.881,2.004-2.003,2.004s-2.004-0.883-2.004-2.004V4.034h-5.21c-1.122,0-2.003-0.882-2.003-2.005
				c0-1.121,0.881-2.002,2.003-2.002H77.261z"/>
			<path d="M56.823,2.029v35.906c0,1.121-0.882,2.004-2.003,2.004c-1.042,0-2.004-0.883-2.004-2.004V2.029
				c0-1.121,0.962-2.002,2.004-2.002C55.941,0.027,56.823,0.908,56.823,2.029z"/>
			<path d="M48.889,9.244c0,1.122-0.962,2.003-2.004,2.003c-1.122,0-2.003-0.881-2.003-2.003c0-2.885-2.324-5.209-5.209-5.209
				s-5.29,2.324-5.29,5.209c0,1.281,0.48,2.564,1.363,3.525l10.738,11.782c1.523,1.683,2.405,3.927,2.405,6.171
				c0,5.129-4.168,9.217-9.217,9.217c-5.129,0-9.297-4.088-9.297-9.217c0-1.041,0.961-2.004,2.003-2.004
				c1.122,0,2.003,0.963,2.003,2.004c0,2.885,2.405,5.291,5.29,5.291s5.209-2.406,5.209-5.291c0-1.281-0.481-2.563-1.363-3.525
				L32.78,15.495c-1.522-1.763-2.403-3.927-2.403-6.251c0-5.049,4.167-9.217,9.297-9.217C44.721,0.027,48.889,4.193,48.889,9.244z"
				/>
			<path d="M26.448,2.029v35.906c0,0.881-0.561,1.604-1.281,1.924c-1.042,0.399-2.164-0.08-2.565-1.123L11.942,12.369v25.566
				c0,1.121-0.882,2.004-2.004,2.004c-1.042,0-1.923-0.883-1.923-2.004V2.029c0-0.801,0.481-1.521,1.202-1.842
				c1.042-0.401,2.164,0.08,2.645,1.121l10.58,26.368V2.029c0-1.121,0.881-2.002,2.003-2.002
				C25.486,0.027,26.448,0.908,26.448,2.029z"/>
			<path d="M4.007,2.029v35.906c0,1.121-0.882,2.004-2.004,2.004S0,39.059,0,37.936V2.029c0-1.121,0.881-2.002,2.003-2.002
				S4.007,0.908,4.007,2.029z"/>
		</g>
	</g>
</g>
</svg>
