<?xml version="1.0" encoding="utf-8"?>
<!-- Generator: Adobe Illustrator 16.0.0, SVG Export Plug-In . SVG Version: 6.00 Build 0)  -->
<!DOCTYPE svg PUBLIC "-//W3C//DTD SVG 1.1//EN" "http://www.w3.org/Graphics/SVG/1.1/DTD/svg11.dtd">
<svg version="1.1" id="Calque_1" xmlns="http://www.w3.org/2000/svg" xmlns:xlink="http://www.w3.org/1999/xlink" x="0px" y="0px"
	 width="133.971px" height="40px" viewBox="0 0 133.971 40" enable-background="new 0 0 133.971 40" xml:space="preserve">
<g id="LWPOLYLINE_2_">
	<g id="XMLID_4_">
		<g>
			<path fill="#FFFFFF" d="M132.802,36.173c1.042,0.479,1.442,1.683,0.962,2.726c-0.562,0.961-1.764,1.361-2.725,0.881
				l-18.113-9.137c-5.13,8.096-15.147,11.381-24.044,8.017C78.623,34.729,73.414,23.188,77.341,12.93
				C81.268,2.591,92.809-2.618,103.067,1.309c10.339,3.928,15.551,15.469,11.621,25.809L132.802,36.173z M111.964,19.982
				c0-8.815-7.133-15.948-15.949-15.948c-8.813,0-15.949,7.133-15.949,15.948c0,8.814,7.135,16.029,15.949,16.029
				C104.831,36.014,111.964,28.799,111.964,19.982z"/>
			<path fill="#FFFFFF" d="M105.953,17.979c1.122,0,2.004,0.963,2.004,2.004c0,6.651-5.29,12.021-11.942,12.021
				s-12.021-5.37-12.021-12.021c0-1.041,0.962-2.004,2.003-2.004c1.122,0,2.004,0.963,2.004,2.004c0,4.408,3.604,8.017,8.015,8.017
				s8.015-3.604,8.015-8.017C104.029,18.941,104.911,17.979,105.953,17.979z"/>
			<path fill="#FFFFFF" d="M103.067,10.927c1.122,0,2.004,0.882,2.004,2.003c0,1.122-0.882,2.004-2.004,2.004
				s-2.003-0.882-2.003-2.004C101.064,11.809,101.945,10.927,103.067,10.927z"/>
			<path fill="#FFFFFF" d="M88.962,10.927c1.122,0,2.004,0.882,2.004,2.003c0,1.122-0.882,2.004-2.004,2.004
				s-2.004-0.882-2.004-2.004C86.958,11.809,87.84,10.927,88.962,10.927z"/>
			<path fill="#FFFFFF" d="M77.261,0.027c1.122,0,2.004,0.881,2.004,2.002c0,1.123-0.882,2.005-2.004,2.005h-5.21v33.901
				c0,1.121-0.881,2.004-2.003,2.004s-2.004-0.883-2.004-2.004V4.034h-5.21c-1.122,0-2.003-0.882-2.003-2.005
				c0-1.121,0.881-2.002,2.003-2.002H77.261z"/>
			<path fill="#FFFFFF" d="M56.823,2.029v35.906c0,1.121-0.882,2.004-2.003,2.004c-1.042,0-2.004-0.883-2.004-2.004V2.029
				c0-1.121,0.962-2.002,2.004-2.002C55.941,0.027,56.823,0.908,56.823,2.029z"/>
			<path fill="#FFFFFF" d="M48.889,9.244c0,1.122-0.962,2.003-2.004,2.003c-1.122,0-2.003-0.881-2.003-2.003
				c0-2.885-2.324-5.209-5.209-5.209s-5.29,2.324-5.29,5.209c0,1.281,0.479,2.564,1.363,3.525l10.737,11.781
				c1.523,1.684,2.405,3.928,2.405,6.172c0,5.129-4.168,9.217-9.217,9.217c-5.129,0-9.297-4.088-9.297-9.217
				c0-1.041,0.961-2.005,2.003-2.005c1.122,0,2.003,0.964,2.003,2.005c0,2.885,2.405,5.291,5.29,5.291s5.209-2.406,5.209-5.291
				c0-1.281-0.481-2.563-1.363-3.525L32.78,15.495c-1.521-1.763-2.402-3.927-2.402-6.251c0-5.049,4.167-9.217,9.297-9.217
				C44.721,0.027,48.889,4.193,48.889,9.244z"/>
			<path fill="#FFFFFF" d="M26.448,2.029v35.906c0,0.881-0.561,1.604-1.28,1.924c-1.042,0.398-2.164-0.08-2.565-1.123l-10.66-26.367
				v25.566c0,1.121-0.882,2.004-2.004,2.004c-1.042,0-1.923-0.883-1.923-2.004V2.029c0-0.801,0.481-1.521,1.202-1.842
				c1.042-0.401,2.164,0.08,2.645,1.121l10.58,26.367V2.029c0-1.121,0.881-2.002,2.003-2.002
				C25.486,0.027,26.448,0.908,26.448,2.029z"/>
			<path fill="#FFFFFF" d="M4.007,2.029v35.906c0,1.121-0.882,2.004-2.004,2.004S0,39.059,0,37.936V2.029
				c0-1.121,0.881-2.002,2.003-2.002S4.007,0.908,4.007,2.029z"/>
		</g>
	</g>
</g>
</svg>
