<?xml version="1.0" encoding="utf-8"?>
<!-- Generator: Adobe Illustrator 16.0.0, SVG Export Plug-In . SVG Version: 6.00 Build 0)  -->
<!DOCTYPE svg PUBLIC "-//W3C//DTD SVG 1.1//EN" "http://www.w3.org/Graphics/SVG/1.1/DTD/svg11.dtd">
<svg version="1.1" id="Calque_1" xmlns="http://www.w3.org/2000/svg" xmlns:xlink="http://www.w3.org/1999/xlink" x="0px" y="0px"
	 width="57.959px" height="40px" viewBox="0 0 57.959 40" enable-background="new 0 0 57.959 40" xml:space="preserve">
<g id="LWPOLYLINE_1_">
	<g id="XMLID_2_">
		<g>
			<path d="M56.795,36.188c1.043,0.479,1.443,1.685,0.963,2.728c-0.563,0.961-1.765,1.362-2.727,0.881L36.91,30.654
				c-5.132,8.101-15.152,11.387-24.053,8.021C2.592,34.743-2.619,23.197,1.311,12.936C5.239,2.592,16.785-2.619,27.047,1.31
				c10.343,3.929,15.557,15.475,11.626,25.818L56.795,36.188z M35.948,19.992c0-8.82-7.135-15.956-15.956-15.956
				c-8.818,0-15.956,7.136-15.956,15.956c0,8.818,7.138,16.035,15.956,16.035C28.813,36.029,35.948,28.813,35.948,19.992z"/>
			<path d="M29.936,17.986c1.123,0,2.005,0.963,2.005,2.006c0,6.652-5.292,12.025-11.947,12.025S7.967,26.645,7.967,19.992
				c0-1.043,0.963-2.006,2.004-2.006c1.123,0,2.006,0.963,2.006,2.006c0,4.408,3.607,8.018,8.019,8.018
				c4.412,0,8.019-3.605,8.019-8.018C28.01,18.949,28.893,17.986,29.936,17.986z"/>
			<path d="M27.047,10.932c1.123,0,2.006,0.881,2.006,2.004c0,1.122-0.883,2.005-2.006,2.005s-2.004-0.883-2.004-2.005
				C25.043,11.813,25.924,10.932,27.047,10.932z"/>
			<path d="M12.937,10.932c1.122,0,2.005,0.881,2.005,2.004c0,1.122-0.883,2.005-2.005,2.005c-1.123,0-2.005-0.883-2.005-2.005
				C10.932,11.813,11.814,10.932,12.937,10.932z"/>
		</g>
	</g>
</g>
</svg>
