<?xml version="1.0" encoding="utf-8"?>
<!-- Generator: Adobe Illustrator 16.0.0, SVG Export Plug-In . SVG Version: 6.00 Build 0)  -->
<!DOCTYPE svg PUBLIC "-//W3C//DTD SVG 1.1//EN" "http://www.w3.org/Graphics/SVG/1.1/DTD/svg11.dtd">
<svg version="1.1" id="Calque_1" xmlns="http://www.w3.org/2000/svg" xmlns:xlink="http://www.w3.org/1999/xlink" x="0px" y="0px"
	 width="57.959px" height="40px" viewBox="0 0 57.959 40" enable-background="new 0 0 57.959 40" xml:space="preserve">
<g id="LWPOLYLINE_3_">
	<g id="XMLID_5_">
		<g>
			<path fill="#FFFFFF" d="M56.795,36.187c1.043,0.479,1.443,1.685,0.963,2.728c-0.563,0.961-1.765,1.362-2.727,0.881L36.91,30.653
				c-5.132,8.101-15.152,11.387-24.053,8.021C2.592,34.742-2.619,23.196,1.311,12.935C5.239,2.591,16.785-2.62,27.047,1.31
				c10.341,3.929,15.556,15.475,11.625,25.817L56.795,36.187z M35.948,19.992c0-8.82-7.135-15.956-15.956-15.956
				c-8.818,0-15.956,7.136-15.956,15.956c0,8.818,7.138,16.035,15.956,16.035C28.813,36.028,35.948,28.812,35.948,19.992z"/>
			<path fill="#FFFFFF" d="M29.936,17.986c1.123,0,2.005,0.963,2.005,2.006c0,6.652-5.292,12.025-11.947,12.025
				S7.967,26.644,7.967,19.992c0-1.043,0.963-2.006,2.004-2.006c1.123,0,2.006,0.963,2.006,2.006c0,4.408,3.607,8.017,8.019,8.017
				c4.412,0,8.019-3.605,8.019-8.017C28.01,18.949,28.893,17.986,29.936,17.986z"/>
			<path fill="#FFFFFF" d="M27.047,10.931c1.123,0,2.006,0.881,2.006,2.004s-0.883,2.006-2.006,2.006s-2.004-0.883-2.004-2.006
				S25.924,10.931,27.047,10.931z"/>
			<path fill="#FFFFFF" d="M12.937,10.931c1.122,0,2.005,0.881,2.005,2.004s-0.883,2.006-2.005,2.006
				c-1.123,0-2.005-0.883-2.005-2.006S11.814,10.931,12.937,10.931z"/>
		</g>
	</g>
</g>
</svg>
